# xmcd
#
# Track frame offsets:
#	150
#	14380
#	30211
#	54487
#	74087
#	86072
#	99497
#	117197
#	138776
#	159033
#	175098
#	190721
#	202702
#	216013
#	231297
#	243253
#	256318
#	268423
#	283565
#	302101
#	315994
#	327253
#
# Disc length: 4601 seconds
# Revision: 0
# Processed by: cddbd v1.5.2PL0 Copyright (c) Steve Scherf et al.
# Submitted via: dBpowerAMP V12.0
#
DISCID=2511f716
DTITLE=Doug Sahm - The Genuine Texas Groover: The Complete Atlantic Recordings
DYEAR=1972
DGENRE=Tex-Mex;Blues
TTITLE0=Is Anybody Going To San Antone [TGTG]
TTITLE1=It's Gonna Be Easy [TGTG]
TTITLE2=Your Friends (Album Version) [TGTG]
TTITLE3=Poison Love [TGTG]
TTITLE4=Wallflower [TGTG]
TTITLE5=Dealer's Blues [TGTG]
TTITLE6=Faded Love [TGTG]
TTITLE7=Blues Stay Away From Me [TGTG]
TTITLE8=Papa Ain't Salty (Album Version) [TGTG]
TTITLE9=Me And Paul [TGTG]
TTITLE10=Don't Turn Around [TGTG]
TTITLE11=I Get Off [TGTG]
TTITLE12=Goodbye San Francisco, Hello Amsterdam [TGTG]
TTITLE13=Never No Mo' Blues [TGTG]
TTITLE14=Sometimes [TGTG]
TTITLE15=Miller's Cave [TGTG]
TTITLE16=On The Banks Of The Old Ponchartrain [TGTG]
TTITLE17=Hey, Good Lookin' [TGTG]
TTITLE18=Please Mr. Sand Man [TGTG]
TTITLE19=Chicken And The Bop [TGTG]
TTITLE20=Columbus Stockade [TGTG]
TTITLE21=The Blues Walked Out On Me [TGTG]
EXTD=
EXTT0=
EXTT1=
EXTT2=
EXTT3=
EXTT4=
EXTT5=
EXTT6=
EXTT7=
EXTT8=
EXTT9=
EXTT10=
EXTT11=
EXTT12=
EXTT13=
EXTT14=
EXTT15=
EXTT16=
EXTT17=
EXTT18=
EXTT19=
EXTT20=
EXTT21=
PLAYORDER=
